<?xml version="1.0" standalone="no"?>
<!DOCTYPE svg PUBLIC "-//W3C//DTD SVG 20010904//EN"
 "http://www.w3.org/TR/2001/REC-SVG-20010904/DTD/svg10.dtd">
<svg version="1.0" xmlns="http://www.w3.org/2000/svg"
 width="144.000000pt" height="144.000000pt" viewBox="0 0 144.000000 144.000000"
 preserveAspectRatio="xMidYMid meet">
<metadata>
Created by potrace 1.14, written by Peter Selinger 2001-2017
</metadata>
<g transform="translate(0.000000,144.000000) scale(0.100000,-0.100000)"
fill="#000000" stroke="none">
<path d="M373 964 l-32 -26 -22 21 c-14 12 -36 21 -55 21 -53 0 -55 -25 -3
-35 33 -7 34 -13 6 -24 -27 -11 -47 -39 -47 -67 0 -14 7 -11 31 14 35 36 64
45 31 10 -11 -13 -21 -26 -21 -30 -1 -5 -1 -9 -2 -10 0 -2 -2 -22 -4 -45 -3
-47 18 -62 30 -20 12 39 30 77 37 77 3 0 8 8 10 18 6 24 35 -80 43 -153 7 -56
6 -59 -9 -40 -16 19 -16 19 -10 -10 4 -16 7 -32 7 -35 1 -3 -4 -15 -11 -26
-14 -26 -7 -34 51 -58 77 -32 304 -3 372 48 18 13 15 14 -26 1 -28 -8 -51 -10
-60 -4 -21 13 -73 11 -94 -5 -12 -9 -26 -11 -40 -6 -11 5 -33 11 -48 15 -16 3
-32 16 -39 30 -6 13 -15 22 -20 19 -14 -9 31 76 53 99 19 21 19 21 20 -24 1
-24 1 -47 0 -51 0 -5 3 -8 8 -8 12 0 22 31 23 70 1 30 18 32 18 2 0 -11 3 -13
11 -5 13 13 -4 52 -24 54 -7 1 4 5 23 8 l35 7 -28 14 c-23 11 -33 11 -48 2
-15 -10 -19 -10 -19 0 0 7 37 47 83 89 45 42 79 80 76 83 -6 6 -20 -5 -94 -72
-87 -79 -74 -75 -141 -47 -49 20 -59 33 -20 26 5 -1 28 -3 52 -5 39 -4 42 -3
32 14 -12 19 -47 29 -107 31 l-36 1 40 12 c23 7 55 10 77 6 45 -9 41 6 -8 26
-46 19 -64 17 -101 -12z m25 -122 c16 -14 18 -22 10 -30 -9 -9 -8 -12 4 -12
23 0 27 -21 11 -53 -17 -34 -20 -32 -28 10 -3 18 -10 44 -15 58 -10 27 -13 45
-7 45 2 0 13 -8 25 -18z m93 -29 c12 -16 12 -17 -2 -6 -9 7 -18 10 -21 7 -3
-3 -9 -1 -13 5 -11 18 22 12 36 -6z m-33 -104 c-36 -57 -49 -69 -41 -38 4 12
0 25 -8 30 -9 6 -10 9 -2 9 7 0 24 11 39 25 42 39 46 30 12 -26z"/>
<path d="M692 979 c5 -15 457 -170 486 -167 14 2 -31 22 -110 50 -73 25 -185
64 -248 87 -124 44 -134 47 -128 30z"/>
<path d="M655 920 c3 -5 10 -10 16 -10 5 0 9 5 9 10 0 6 -7 10 -16 10 -8 0
-12 -4 -9 -10z"/>
<path d="M690 920 c0 -5 5 -10 10 -10 6 0 10 5 10 10 0 6 -4 10 -10 10 -5 0
-10 -4 -10 -10z"/>
<path d="M696 891 c-4 -7 -5 -15 -2 -18 9 -9 19 4 14 18 -4 11 -6 11 -12 0z"/>
<path d="M655 880 c3 -5 10 -10 16 -10 5 0 9 5 9 10 0 6 -7 10 -16 10 -8 0
-12 -4 -9 -10z"/>
<path d="M890 597 c-25 -5 -99 -24 -165 -43 -199 -58 -305 -57 -377 4 -25 21
-30 23 -25 9 4 -10 7 -22 7 -25 0 -14 46 -60 77 -76 67 -34 165 -17 383 69 74
29 149 57 165 63 27 10 28 10 5 9 -14 -1 -45 -5 -70 -10z"/>
<path d="M931 558 c-36 -9 -111 -36 -166 -58 -55 -23 -107 -43 -115 -45 -8 -2
-33 -11 -55 -19 -32 -12 -35 -15 -15 -15 25 -1 93 15 270 63 179 49 267 44
336 -16 l36 -32 -16 39 c-22 53 -34 65 -83 87 -49 21 -98 20 -192 -4z"/>
</g>
</svg>
